# xmcd
#
# Track frame offsets: 
#        150
#        16297
#        37340
#        59425
#        80622
#        98940
#        116412
#        134827
#        148390
#        176615
#        199107
#
# Disc length: 2853 seconds
#
# Revision: 1
# Processed by: cddbd v1.5.2PL0 Copyright (c) Steve Scherf et al.
# Submitted via: ExactAudioCopy v1.0b2
#
DISCID=a90b230b
DTITLE=The Kilborn Alley Blues Band - Better Off Now!
DYEAR=2010
DGENRE=Blues
TTITLE0=Nothin' Left To Stimulate
TTITLE1=Foolsville
TTITLE2=Better Off Now
TTITLE3=Train To Memphis
TTITLE4=Watch It
TTITLE5=Bubbleguts
TTITLE6=Tonight
TTITLE7=You Can Have The Tail
TTITLE8=Keep Me Hangin'
TTITLE9=Whoa Yeah Woman
TTITLE10=Tough Times
EXTD=
EXTT0=
EXTT1=
EXTT2=
EXTT3=
EXTT4=
EXTT5=
EXTT6=
EXTT7=
EXTT8=
EXTT9=
EXTT10=
PLAYORDER=
